<svg version="1.1" id="Layer_1" xmlns="http://www.w3.org/2000/svg" xmlns:xlink="http://www.w3.org/1999/xlink" x="0px" y="0px"
	 width="100%" viewBox="0 0 940 940" enable-background="new 0 0 940 940" xml:space="preserve">
<path fill="#B68C68" opacity="1.000000" stroke="none" 
	d="
M433.000000,941.000000 
	C288.666656,941.000000 144.833328,941.000000 1.000000,941.000000 
	C1.000000,627.666687 1.000000,314.333344 1.000000,1.000000 
	C314.333344,1.000000 627.666687,1.000000 941.000000,1.000000 
	C941.000000,314.333344 941.000000,627.666687 941.000000,941.000000 
	C771.833313,941.000000 602.666687,941.000000 433.000000,941.000000 
M462.500000,246.149521 
	C429.181763,246.149628 395.862946,246.246658 362.545929,246.043320 
	C357.656647,246.013474 356.360931,247.519058 356.418732,252.264801 
	C356.656067,271.753143 356.497589,291.246155 356.530609,310.737366 
	C356.535767,313.781128 356.312378,316.083099 352.370880,316.766541 
	C333.371582,320.060913 322.247589,332.055084 321.741852,351.101166 
	C321.153961,373.242371 321.586548,395.409973 321.496490,417.565796 
	C321.484344,420.554779 322.591003,421.732513 325.618744,421.670197 
	C332.279541,421.533173 338.945984,421.567719 345.608734,421.647980 
	C357.903229,421.796112 356.270447,419.984924 356.543915,432.539307 
	C356.865631,447.310120 353.452332,444.781311 369.635864,445.089966 
	C372.797272,445.150269 374.197418,444.035522 374.034882,440.729034 
	C373.838837,436.740601 373.988861,432.734924 373.995453,428.736725 
	C374.007111,421.653900 374.009125,421.640869 381.073822,421.640411 
	C439.214447,421.636658 497.355133,421.614441 555.495728,421.657867 
	C567.218323,421.666595 565.716553,420.295532 565.784241,432.119537 
	C565.862915,445.852509 565.799683,445.781891 579.459839,445.117645 
	C582.383301,444.975494 583.708618,444.075043 583.615662,441.009583 
	C583.469421,436.183014 583.747070,431.341431 583.537170,426.519623 
	C583.378784,422.880188 584.669495,421.489075 588.402893,421.577118 
	C596.894287,421.777313 605.395691,421.530548 613.888977,421.687469 
	C617.241455,421.749390 618.659790,420.762939 618.638611,417.168030 
	C618.511902,395.678375 618.814941,374.183807 618.481567,352.698517 
	C618.193665,334.142914 606.097839,319.550323 589.049194,316.986420 
	C584.409485,316.288635 583.480530,314.330048 583.514648,310.178650 
	C583.672058,291.021881 583.588379,271.863068 583.579895,252.704971 
	C583.576965,246.171463 583.561951,246.153702 576.949158,246.152649 
	C539.132751,246.146622 501.316376,246.149750 462.500000,246.149521 
M725.283630,588.771179 
	C739.969177,575.309998 743.760010,558.582642 738.570801,540.000854 
	C733.465149,521.718506 720.112061,511.352020 701.860962,509.073944 
	C687.237122,507.248627 672.276917,508.217255 657.477844,507.639923 
	C652.797974,507.457397 651.523804,509.067017 651.554993,513.622314 
	C651.738647,540.447998 651.638428,567.275513 651.657959,594.102417 
	C651.659241,595.906189 651.859375,597.709778 651.980225,599.734619 
	C653.595093,599.880432 654.895569,600.098328 656.196228,600.099609 
	C668.526489,600.111694 680.859375,600.241516 693.186157,600.028015 
	C704.808533,599.826721 715.526855,596.649902 725.283630,588.771179 
M498.081238,582.606689 
	C510.608551,564.709900 510.958496,542.751221 498.246979,525.738525 
	C486.978485,510.657104 471.134918,505.273193 452.845123,507.022278 
	C434.047394,508.819885 419.928986,518.278198 412.896881,535.867188 
	C405.892334,553.387268 408.423920,570.244812 420.781006,585.042358 
	C438.475342,606.231262 478.924530,607.419250 498.081238,582.606689 
M574.660217,601.188110 
	C576.489624,601.123535 578.325073,601.132446 580.147583,600.983582 
	C619.818665,597.742737 633.704773,559.218567 619.671265,531.774109 
	C610.556702,513.949341 590.367126,504.380707 568.095764,507.200287 
	C539.185242,510.860352 520.565063,538.891052 528.439636,566.898315 
	C534.084473,586.975281 550.375488,599.276184 574.660217,601.188110 
M111.622192,576.751892 
	C104.329910,567.507446 102.081650,556.972351 104.590233,545.660828 
	C109.949944,521.493530 139.235428,510.658966 161.016113,524.580322 
	C167.786636,528.907776 167.797394,528.917603 173.212311,523.001831 
	C173.846024,522.309509 174.281921,521.436218 174.871277,520.554382 
	C163.617844,508.821503 149.645996,505.961975 134.438828,506.936310 
	C99.594299,509.168823 79.016029,546.910767 96.141808,577.103333 
	C113.242165,607.251099 153.198441,605.726013 172.639450,590.615723 
	C173.743240,589.757812 174.553482,587.833557 174.579422,586.388977 
	C174.752945,576.728455 174.614975,567.062744 174.719025,557.400269 
	C174.749451,554.573914 173.592072,553.440918 170.863449,553.580505 
	C169.368057,553.657104 167.853546,553.706177 166.368027,553.560364 
	C162.937958,553.223694 161.578140,554.591370 161.679245,558.114563 
	C161.870316,564.773621 161.450882,571.457886 161.825500,578.101257 
	C162.078110,582.580994 160.061310,584.721069 156.295609,586.362000 
	C141.537460,592.792908 123.269127,589.118469 111.622192,576.751892 
M365.799866,586.710144 
	C359.743011,587.517944 353.656525,589.183777 347.634735,588.975891 
	C327.991730,588.297668 313.795715,572.928223 314.011719,553.382874 
	C314.223480,534.217712 328.828949,519.681274 348.284119,518.754639 
	C359.379486,518.226196 368.902405,521.642151 377.054962,528.758850 
	C380.063629,526.054077 382.727142,523.659607 385.752533,520.939758 
	C383.804932,519.148315 382.438934,517.739197 380.920685,516.519714 
	C370.248657,507.948212 357.768311,506.046844 344.622711,506.974182 
	C309.905975,509.423248 289.686981,546.461243 306.518341,576.896484 
	C323.422180,607.462769 363.989258,605.670410 383.316925,590.477417 
	C384.120178,589.845947 384.900330,588.600525 384.910004,587.633301 
	C385.021027,576.505005 384.980774,565.375122 384.980774,553.588318 
	C382.215363,553.588318 379.897491,553.782104 377.624298,553.545959 
	C373.495850,553.117188 371.996674,554.714050 372.205688,558.899719 
	C372.504425,564.881897 371.980682,570.909973 372.375397,576.880920 
	C372.694794,581.711853 371.302277,584.954590 365.799866,586.710144 
M758.563599,600.126892 
	C764.109436,601.207581 767.146240,598.841980 768.806396,593.502319 
	C770.132690,589.236755 772.457520,585.291992 774.111206,581.114563 
	C775.251831,578.233032 777.054138,577.086609 780.177429,577.113708 
	C793.670715,577.230835 807.166321,577.233032 820.659546,577.111877 
	C823.789368,577.083801 825.560547,578.248413 826.724182,581.111145 
	C828.855347,586.354309 831.105774,591.559998 833.599365,596.637573 
	C834.291809,598.047607 835.909973,599.750732 837.285767,599.931396 
	C840.833679,600.397278 844.483521,600.087402 848.659851,600.087402 
	C847.888428,598.007690 847.460815,596.594788 846.855774,595.262390 
	C834.322205,567.663513 821.648010,540.127258 809.338013,512.429138 
	C807.300110,507.843811 804.273071,507.672913 800.259094,507.617584 
	C796.284912,507.562775 793.567749,508.124908 791.667297,512.402588 
	C779.496033,539.798279 767.003113,567.050964 754.640320,594.361694 
	C753.911804,595.971130 753.395447,597.676697 752.607849,599.803162 
	C754.729065,599.938843 756.190552,600.032349 758.563599,600.126892 
M207.131210,567.470459 
	C202.350815,578.033264 197.570435,588.596069 192.351883,600.127075 
	C195.517151,600.127075 197.645355,599.901245 199.707993,600.172974 
	C204.336685,600.782593 207.103424,599.180298 208.630966,594.551025 
	C210.136536,589.988220 212.572021,585.740845 214.311798,581.243774 
	C215.525574,578.106323 217.517014,577.071838 220.789856,577.104065 
	C234.108795,577.235535 247.430603,577.243103 260.749359,577.104065 
	C264.094482,577.069214 265.934357,578.337769 267.149811,581.381775 
	C269.185425,586.479797 271.422760,591.504272 273.779907,596.462341 
	C274.428009,597.825562 275.703766,599.726318 276.863281,599.857178 
	C280.679596,600.287476 284.574677,600.019104 288.885712,600.019104 
	C288.332733,598.372192 288.139313,597.569092 287.804077,596.830383 
	C274.871979,568.334412 261.841064,539.882690 249.063950,511.317505 
	C246.806473,506.270569 242.822998,508.131805 239.296356,507.706299 
	C235.966019,507.304504 233.803116,508.318726 232.299835,511.718597 
	C224.155579,530.137878 215.766205,548.448730 207.131210,567.470459 
M521.515076,664.480408 
	C521.514160,662.315063 521.493713,660.149597 521.517273,657.984497 
	C521.545837,655.358582 521.603149,653.073425 517.759094,653.023376 
	C514.041626,652.975098 513.758362,654.949768 513.810913,657.750793 
	C513.895264,662.246399 513.773560,666.745850 513.848694,671.241821 
	C514.032104,682.216248 522.049500,687.886169 532.595032,684.414734 
	C534.777832,683.696106 536.333252,682.966370 538.857178,684.457214 
	C542.372742,686.533630 544.895569,684.615601 544.943115,680.512451 
	C545.031738,672.851562 544.947815,665.188904 544.980652,657.527100 
	C544.991699,654.943481 544.680664,653.086731 541.257690,653.026001 
	C537.603088,652.961243 537.287415,654.849915 537.247009,657.704224 
	C537.176514,662.684326 537.216797,667.722046 536.460388,672.619812 
	C535.770386,677.087769 532.253418,678.805847 527.913818,678.475525 
	C523.669800,678.152405 521.859619,675.422241 521.637634,671.436035 
	C521.526611,669.442383 521.551147,667.441162 521.515076,664.480408 
M356.075592,679.270996 
	C361.247162,686.049927 367.452789,686.998413 375.877441,683.197571 
	C379.564850,684.056641 381.984741,684.620361 384.946442,685.310364 
	C384.946442,674.097046 384.946442,663.878113 384.946442,653.718811 
	C377.880310,652.486023 377.559906,652.725647 377.516296,659.019653 
	C377.490936,662.678223 377.632507,666.345764 377.424774,669.993591 
	C377.104187,675.623840 374.108368,678.589661 369.109711,678.563721 
	C364.440430,678.539551 362.217621,675.775330 362.098572,669.653503 
	C362.011261,665.164612 362.282013,660.652527 361.879547,656.197144 
	C361.778625,655.079956 359.678314,653.299622 358.539001,653.331421 
	C357.080719,653.372131 354.409668,654.965027 354.427979,655.844055 
	C354.585968,663.432007 355.231720,671.009705 356.075592,679.270996 
M603.387756,654.066040 
	C594.603333,651.572632 587.135864,653.926758 583.169434,660.440063 
	C579.372681,666.674805 580.277527,675.188232 585.281616,680.313049 
	C590.229736,685.380554 600.748901,686.913696 607.111938,683.300110 
	C608.418823,682.557922 609.912720,681.157043 610.145752,679.850220 
	C610.308411,678.938171 608.642761,677.073608 607.472168,676.730164 
	C606.345886,676.399597 604.782593,677.417542 603.452454,677.946411 
	C597.195129,680.434082 591.391357,678.253174 589.612915,671.725464 
	C597.466980,671.725464 605.096191,671.725464 612.554932,671.725464 
	C613.534912,662.949524 611.173950,658.462952 603.387756,654.066040 
M431.615265,679.243896 
	C431.837708,674.771057 431.686676,670.238708 432.387543,665.842102 
	C433.088989,661.442078 436.374969,659.571533 440.765198,659.697266 
	C445.292206,659.826904 447.370087,662.547852 447.643707,666.694336 
	C447.916901,670.834534 447.818176,675.000061 447.856537,679.154724 
	C447.913208,685.300598 448.067841,685.428650 455.280090,684.246704 
	C455.280090,678.780151 455.323242,673.176514 455.271118,667.573792 
	C455.160675,655.706787 447.048309,650.111755 435.873322,653.953430 
	C434.393433,654.462097 432.320862,654.188599 430.833588,653.551697 
	C426.884888,651.860596 424.246277,653.201538 424.195953,657.462097 
	C424.107513,664.943420 424.160919,672.426575 424.170471,679.908936 
	C424.173676,682.420349 423.834656,684.902283 427.780060,684.965332 
	C431.594238,685.026245 431.692139,682.828857 431.615265,679.243896 
M345.631805,653.479126 
	C343.515045,653.297058 341.398315,653.114990 339.337921,652.937805 
	C339.032410,647.565125 339.498260,647.324341 345.268646,646.932983 
	C346.495361,646.849854 347.863708,645.111023 348.594788,643.812927 
	C348.806183,643.437622 347.199982,641.383850 346.129486,641.048157 
	C339.354950,638.923523 333.447449,642.522034 331.591003,649.272461 
	C331.165009,650.821472 329.398376,651.988342 328.297729,653.370117 
	C327.558044,654.298767 326.396088,655.274353 326.353821,656.268494 
	C326.310577,657.285706 327.272491,659.135986 328.020142,659.259949 
	C331.304962,659.804626 331.271027,662.028992 331.266602,664.445801 
	C331.256256,670.104858 331.353577,675.764954 331.269043,681.422546 
	C331.223999,684.439148 332.855042,684.926941 335.396545,684.928650 
	C338.053040,684.930359 338.868866,683.736084 338.835449,681.274841 
	C338.758698,675.616821 338.953400,669.952881 338.778809,664.299255 
	C338.677490,661.019104 339.554504,659.331848 343.202820,659.489746 
	C347.702606,659.684387 348.363922,657.399048 345.631805,653.479126 
M495.288696,663.596252 
	C495.184692,660.995361 496.205841,659.520691 499.035553,659.549927 
	C501.173004,659.571960 503.566071,659.833923 503.616547,656.505798 
	C503.672729,652.801575 500.927094,653.676575 498.766357,653.156372 
	C497.492493,652.849670 495.539215,651.509460 495.499451,650.566223 
	C495.264496,644.993835 491.785034,646.248718 488.384735,646.678833 
	C487.439850,649.656677 488.269897,653.879761 483.313568,653.743713 
	C483.457672,655.580688 483.386536,658.963257 483.778809,659.017822 
	C488.194031,659.632690 487.736176,662.752686 487.721527,665.746399 
	C487.707703,668.572449 487.672455,671.399963 487.741730,674.224487 
	C487.953003,682.839111 494.765594,687.621216 502.783783,684.622620 
	C503.777710,684.250916 504.959015,682.450684 504.817902,681.494995 
	C504.664734,680.457764 503.146088,678.952209 502.085419,678.828430 
	C495.420013,678.050415 495.331024,678.086548 495.267029,671.549866 
	C495.244263,669.222717 495.265808,666.895203 495.288696,663.596252 
M396.971222,671.474731 
	C396.971558,674.128723 396.979218,676.782776 396.970245,679.436768 
	C396.960571,682.304077 396.570038,685.053223 401.092102,684.989929 
	C405.772583,684.924500 404.868774,681.863525 404.971893,679.185974 
	C405.048431,677.198303 404.986481,675.205505 404.989502,673.214966 
	C405.004852,663.087158 405.650330,662.190430 415.125000,659.164795 
	C415.125000,657.278320 415.125000,655.384827 415.125000,653.154480 
	C413.401428,653.269104 412.020050,653.090149 410.837494,653.493652 
	C408.008423,654.459167 405.733917,655.615723 402.460144,653.421570 
	C399.406647,651.375061 397.076416,653.487976 396.997437,657.546509 
	C396.913513,661.857666 396.974915,666.171692 396.971222,671.474731 
M556.734863,668.503113 
	C556.737793,672.657288 556.795349,676.812378 556.723633,680.965271 
	C556.679138,683.542725 557.411316,684.927307 560.383850,684.959290 
	C563.501404,684.992798 564.534424,683.699280 564.413269,680.800476 
	C564.302246,678.146606 564.388367,675.484131 564.402405,672.825500 
	C564.453003,663.248840 565.805786,661.487183 575.336182,659.258484 
	C575.132019,657.463196 575.573914,654.789734 574.524170,653.923035 
	C573.427917,653.017944 570.894836,653.925659 568.991394,653.905396 
	C567.088806,653.885132 565.033325,654.122009 563.317383,653.497498 
	C559.242676,652.014771 556.851990,653.290405 556.754578,657.538879 
	C556.678467,660.860474 556.737244,664.185181 556.734863,668.503113 
M467.077057,665.520996 
	C467.079590,670.492310 467.115906,675.463867 467.070679,680.434753 
	C467.047516,682.978699 467.258179,684.912598 470.695068,684.961792 
	C474.011566,685.009277 474.528748,683.383850 474.503204,680.678162 
	C474.429657,672.890503 474.428589,665.101196 474.503662,657.313599 
	C474.529816,654.599365 473.994629,652.990540 470.686829,653.038513 
	C467.243256,653.088379 467.021454,655.036316 467.073914,657.573608 
	C467.121826,659.892517 467.079620,662.213196 467.077057,665.520996 
M474.941254,641.472046 
	C472.701019,638.767578 469.915161,638.694885 467.595795,640.845581 
	C466.642761,641.729309 466.257233,644.816772 466.987030,645.568604 
	C468.234467,646.853699 471.119781,648.131104 472.299347,647.502319 
	C473.799835,646.702454 474.286804,644.001343 474.941254,641.472046 
z"/>
<path fill="#F1EDE8" opacity="1.000000" stroke="none" 
	d="
M463.000000,246.149658 
	C501.316376,246.149750 539.132751,246.146622 576.949158,246.152649 
	C583.561951,246.153702 583.576965,246.171463 583.579895,252.704971 
	C583.588379,271.863068 583.672058,291.021881 583.514648,310.178650 
	C583.480530,314.330048 584.409485,316.288635 589.049194,316.986420 
	C606.097839,319.550323 618.193665,334.142914 618.481567,352.698517 
	C618.814941,374.183807 618.511902,395.678375 618.638611,417.168030 
	C618.659790,420.762939 617.241455,421.749390 613.888977,421.687469 
	C605.395691,421.530548 596.894287,421.777313 588.402893,421.577118 
	C584.669495,421.489075 583.378784,422.880188 583.537170,426.519623 
	C583.747070,431.341431 583.469421,436.183014 583.615662,441.009583 
	C583.708618,444.075043 582.383301,444.975494 579.459839,445.117645 
	C565.799683,445.781891 565.862915,445.852509 565.784241,432.119537 
	C565.716553,420.295532 567.218323,421.666595 555.495728,421.657867 
	C497.355133,421.614441 439.214447,421.636658 381.073822,421.640411 
	C374.009125,421.640869 374.007111,421.653900 373.995453,428.736725 
	C373.988861,432.734924 373.838837,436.740601 374.034882,440.729034 
	C374.197418,444.035522 372.797272,445.150269 369.635864,445.089966 
	C353.452332,444.781311 356.865631,447.310120 356.543915,432.539307 
	C356.270447,419.984924 357.903229,421.796112 345.608734,421.647980 
	C338.945984,421.567719 332.279541,421.533173 325.618744,421.670197 
	C322.591003,421.732513 321.484344,420.554779 321.496490,417.565796 
	C321.586548,395.409973 321.153961,373.242371 321.741852,351.101166 
	C322.247589,332.055084 333.371582,320.060913 352.370880,316.766541 
	C356.312378,316.083099 356.535767,313.781128 356.530609,310.737366 
	C356.497589,291.246155 356.656067,271.753143 356.418732,252.264801 
	C356.360931,247.519058 357.656647,246.013474 362.545929,246.043320 
	C395.862946,246.246658 429.181763,246.149628 463.000000,246.149658 
M539.500000,403.941406 
	C558.155579,403.940460 576.811890,403.847717 595.466064,404.011078 
	C599.506287,404.046509 601.030579,402.887573 600.970886,398.661469 
	C600.761475,383.839783 600.965515,369.012817 600.860718,354.188904 
	C600.764343,340.564453 594.150574,334.005829 580.479431,333.999603 
	C506.689453,333.966003 432.899445,333.965912 359.109467,333.999878 
	C345.598022,334.006073 339.094299,340.475830 339.017029,353.893738 
	C338.934540,368.218201 338.989044,382.543488 338.995148,396.868408 
	C338.998169,403.926147 339.009827,403.938812 346.113037,403.939209 
	C410.242035,403.942657 474.371002,403.941284 539.500000,403.941406 
M453.500000,316.154114 
	C488.966644,316.153320 524.433533,316.094269 559.899597,316.226074 
	C564.293884,316.242401 566.107056,315.159058 565.995911,310.375366 
	C565.679077,296.728363 565.687744,283.068298 565.887878,269.418060 
	C565.951538,265.077606 564.615967,263.699677 560.210632,263.708771 
	C499.934326,263.833405 439.657532,263.842773 379.381317,263.692810 
	C374.741333,263.681274 373.849091,265.376282 373.913452,269.519226 
	C374.122864,283.003265 374.174072,296.496399 373.893707,309.977875 
	C373.794586,314.743805 375.212585,316.293304 380.069061,316.250122 
	C404.211090,316.035461 428.356049,316.153503 453.500000,316.154114 
z"/>
<path fill="#F1EDEA" opacity="1.000000" stroke="none" 
	d="
M725.000732,588.985352 
	C715.526855,596.649902 704.808533,599.826721 693.186157,600.028015 
	C680.859375,600.241516 668.526489,600.111694 656.196228,600.099609 
	C654.895569,600.098328 653.595093,599.880432 651.980225,599.734619 
	C651.859375,597.709778 651.659241,595.906189 651.657959,594.102417 
	C651.638428,567.275513 651.738647,540.447998 651.554993,513.622314 
	C651.523804,509.067017 652.797974,507.457397 657.477844,507.639923 
	C672.276917,508.217255 687.237122,507.248627 701.860962,509.073944 
	C720.112061,511.352020 733.465149,521.718506 738.570801,540.000854 
	C743.760010,558.582642 739.969177,575.309998 725.000732,588.985352 
M674.559082,588.872925 
	C682.031189,588.602173 689.542786,588.726379 696.967529,587.982605 
	C715.251465,586.151428 726.984741,572.932556 727.244629,554.418701 
	C727.501709,536.105591 715.972107,522.159912 697.862732,520.030518 
	C688.655457,518.947937 679.267029,519.482666 669.974121,519.015137 
	C666.016724,518.816101 664.875061,520.194641 664.909180,524.110962 
	C665.083435,544.077087 664.980103,564.045593 665.002869,584.013306 
	C665.004517,585.453735 665.237183,586.893860 665.409302,588.872864 
	C668.338501,588.872864 670.959778,588.872864 674.559082,588.872925 
z"/>
<path fill="#F1EDE8" opacity="1.000000" stroke="none" 
	d="
M497.873199,582.893921 
	C478.924530,607.419250 438.475342,606.231262 420.781006,585.042358 
	C408.423920,570.244812 405.892334,553.387268 412.896881,535.867188 
	C419.928986,518.278198 434.047394,508.819885 452.845123,507.022278 
	C471.134918,505.273193 486.978485,510.657104 498.246979,525.738525 
	C510.958496,542.751221 510.608551,564.709900 497.873199,582.893921 
M438.100067,583.526855 
	C452.844696,592.290344 471.834351,590.892517 483.220367,580.205750 
	C497.510468,566.793274 497.833344,541.682861 483.885529,528.474609 
	C469.021210,514.398376 443.246338,515.617188 430.560089,530.996155 
	C417.498199,546.830505 420.747131,571.295837 438.100067,583.526855 
z"/>
<path fill="#F1EDE8" opacity="1.000000" stroke="none" 
	d="
M574.228882,601.167480 
	C550.375488,599.276184 534.084473,586.975281 528.439636,566.898315 
	C520.565063,538.891052 539.185242,510.860352 568.095764,507.200287 
	C590.367126,504.380707 610.556702,513.949341 619.671265,531.774109 
	C633.704773,559.218567 619.818665,597.742737 580.147583,600.983582 
	C578.325073,601.132446 576.489624,601.123535 574.228882,601.167480 
M556.557007,584.130249 
	C572.170349,592.560730 590.808167,590.459778 601.873718,579.021851 
	C615.663818,564.767700 614.836731,539.947021 600.153931,527.408997 
	C584.334778,513.900635 559.372498,516.196472 547.046936,532.293396 
	C534.821472,548.259583 539.008667,572.516052 556.557007,584.130249 
z"/>
<path fill="#F0ECE8" opacity="1.000000" stroke="none" 
	d="
M111.859467,577.027039 
	C123.269127,589.118469 141.537460,592.792908 156.295609,586.362000 
	C160.061310,584.721069 162.078110,582.580994 161.825500,578.101257 
	C161.450882,571.457886 161.870316,564.773621 161.679245,558.114563 
	C161.578140,554.591370 162.937958,553.223694 166.368027,553.560364 
	C167.853546,553.706177 169.368057,553.657104 170.863449,553.580505 
	C173.592072,553.440918 174.749451,554.573914 174.719025,557.400269 
	C174.614975,567.062744 174.752945,576.728455 174.579422,586.388977 
	C174.553482,587.833557 173.743240,589.757812 172.639450,590.615723 
	C153.198441,605.726013 113.242165,607.251099 96.141808,577.103333 
	C79.016029,546.910767 99.594299,509.168823 134.438828,506.936310 
	C149.645996,505.961975 163.617844,508.821503 174.871277,520.554382 
	C174.281921,521.436218 173.846024,522.309509 173.212311,523.001831 
	C167.797394,528.917603 167.786636,528.907776 161.016113,524.580322 
	C139.235428,510.658966 109.949944,521.493530 104.590233,545.660828 
	C102.081650,556.972351 104.329910,567.507446 111.859467,577.027039 
z"/>
<path fill="#F1EDE8" opacity="1.000000" stroke="none" 
	d="
M366.173401,586.566650 
	C371.302277,584.954590 372.694794,581.711853 372.375397,576.880920 
	C371.980682,570.909973 372.504425,564.881897 372.205688,558.899719 
	C371.996674,554.714050 373.495850,553.117188 377.624298,553.545959 
	C379.897491,553.782104 382.215363,553.588318 384.980774,553.588318 
	C384.980774,565.375122 385.021027,576.505005 384.910004,587.633301 
	C384.900330,588.600525 384.120178,589.845947 383.316925,590.477417 
	C363.989258,605.670410 323.422180,607.462769 306.518341,576.896484 
	C289.686981,546.461243 309.905975,509.423248 344.622711,506.974182 
	C357.768311,506.046844 370.248657,507.948212 380.920685,516.519714 
	C382.438934,517.739197 383.804932,519.148315 385.752533,520.939758 
	C382.727142,523.659607 380.063629,526.054077 377.054962,528.758850 
	C368.902405,521.642151 359.379486,518.226196 348.284119,518.754639 
	C328.828949,519.681274 314.223480,534.217712 314.011719,553.382874 
	C313.795715,572.928223 327.991730,588.297668 347.634735,588.975891 
	C353.656525,589.183777 359.743011,587.517944 366.173401,586.566650 
z"/>
<path fill="#F0ECE8" opacity="1.000000" stroke="none" 
	d="
M758.107788,600.126343 
	C756.190552,600.032349 754.729065,599.938843 752.607849,599.803162 
	C753.395447,597.676697 753.911804,595.971130 754.640320,594.361694 
	C767.003113,567.050964 779.496033,539.798279 791.667297,512.402588 
	C793.567749,508.124908 796.284912,507.562775 800.259094,507.617584 
	C804.273071,507.672913 807.300110,507.843811 809.338013,512.429138 
	C821.648010,540.127258 834.322205,567.663513 846.855774,595.262390 
	C847.460815,596.594788 847.888428,598.007690 848.659851,600.087402 
	C844.483521,600.087402 840.833679,600.397278 837.285767,599.931396 
	C835.909973,599.750732 834.291809,598.047607 833.599365,596.637573 
	C831.105774,591.559998 828.855347,586.354309 826.724182,581.111145 
	C825.560547,578.248413 823.789368,577.083801 820.659546,577.111877 
	C807.166321,577.233032 793.670715,577.230835 780.177429,577.113708 
	C777.054138,577.086609 775.251831,578.233032 774.111206,581.114563 
	C772.457520,585.291992 770.132690,589.236755 768.806396,593.502319 
	C767.146240,598.841980 764.109436,601.207581 758.107788,600.126343 
M795.509521,566.391785 
	C803.284119,566.391785 811.058716,566.391785 820.228333,566.391785 
	C813.527039,551.113525 807.346863,537.023438 801.166748,522.933289 
	C800.641357,522.992920 800.115967,523.052551 799.590576,523.112183 
	C793.423584,537.180359 787.256592,551.248535 780.618103,566.392334 
	C785.981628,566.392334 790.248779,566.392334 795.509521,566.391785 
z"/>
<path fill="#F0ECE8" opacity="1.000000" stroke="none" 
	d="
M207.296234,567.133667 
	C215.766205,548.448730 224.155579,530.137878 232.299835,511.718597 
	C233.803116,508.318726 235.966019,507.304504 239.296356,507.706299 
	C242.822998,508.131805 246.806473,506.270569 249.063950,511.317505 
	C261.841064,539.882690 274.871979,568.334412 287.804077,596.830383 
	C288.139313,597.569092 288.332733,598.372192 288.885712,600.019104 
	C284.574677,600.019104 280.679596,600.287476 276.863281,599.857178 
	C275.703766,599.726318 274.428009,597.825562 273.779907,596.462341 
	C271.422760,591.504272 269.185425,586.479797 267.149811,581.381775 
	C265.934357,578.337769 264.094482,577.069214 260.749359,577.104065 
	C247.430603,577.243103 234.108795,577.235535 220.789856,577.104065 
	C217.517014,577.071838 215.525574,578.106323 214.311798,581.243774 
	C212.572021,585.740845 210.136536,589.988220 208.630966,594.551025 
	C207.103424,599.180298 204.336685,600.782593 199.707993,600.172974 
	C197.645355,599.901245 195.517151,600.127075 192.351883,600.127075 
	C197.570435,588.596069 202.350815,578.033264 207.296234,567.133667 
M248.220306,538.316101 
	C245.959991,533.225708 243.699692,528.135376 241.439392,523.044983 
	C240.935349,523.024231 240.431320,523.003479 239.927292,522.982727 
	C233.750351,537.085205 227.573395,551.187622 221.088058,565.994141 
	C234.635910,565.994141 246.985229,565.994141 260.286743,565.994141 
	C256.169128,556.556091 252.342560,547.785095 248.220306,538.316101 
z"/>
<path fill="#EFEAE4" opacity="1.000000" stroke="none" 
	d="
M521.514648,664.961914 
	C521.551147,667.441162 521.526611,669.442383 521.637634,671.436035 
	C521.859619,675.422241 523.669800,678.152405 527.913818,678.475525 
	C532.253418,678.805847 535.770386,677.087769 536.460388,672.619812 
	C537.216797,667.722046 537.176514,662.684326 537.247009,657.704224 
	C537.287415,654.849915 537.603088,652.961243 541.257690,653.026001 
	C544.680664,653.086731 544.991699,654.943481 544.980652,657.527100 
	C544.947815,665.188904 545.031738,672.851562 544.943115,680.512451 
	C544.895569,684.615601 542.372742,686.533630 538.857178,684.457214 
	C536.333252,682.966370 534.777832,683.696106 532.595032,684.414734 
	C522.049500,687.886169 514.032104,682.216248 513.848694,671.241821 
	C513.773560,666.745850 513.895264,662.246399 513.810913,657.750793 
	C513.758362,654.949768 514.041626,652.975098 517.759094,653.023376 
	C521.603149,653.073425 521.545837,655.358582 521.517273,657.984497 
	C521.493713,660.149597 521.514160,662.315063 521.514648,664.961914 
z"/>
<path fill="#EFEAE4" opacity="1.000000" stroke="none" 
	d="
M355.903809,678.930786 
	C355.231720,671.009705 354.585968,663.432007 354.427979,655.844055 
	C354.409668,654.965027 357.080719,653.372131 358.539001,653.331421 
	C359.678314,653.299622 361.778625,655.079956 361.879547,656.197144 
	C362.282013,660.652527 362.011261,665.164612 362.098572,669.653503 
	C362.217621,675.775330 364.440430,678.539551 369.109711,678.563721 
	C374.108368,678.589661 377.104187,675.623840 377.424774,669.993591 
	C377.632507,666.345764 377.490936,662.678223 377.516296,659.019653 
	C377.559906,652.725647 377.880310,652.486023 384.946442,653.718811 
	C384.946442,663.878113 384.946442,674.097046 384.946442,685.310364 
	C381.984741,684.620361 379.564850,684.056641 375.877441,683.197571 
	C367.452789,686.998413 361.247162,686.049927 355.903809,678.930786 
z"/>
<path fill="#EFEAE4" opacity="1.000000" stroke="none" 
	d="
M603.740601,654.189575 
	C611.173950,658.462952 613.534912,662.949524 612.554932,671.725464 
	C605.096191,671.725464 597.466980,671.725464 589.612915,671.725464 
	C591.391357,678.253174 597.195129,680.434082 603.452454,677.946411 
	C604.782593,677.417542 606.345886,676.399597 607.472168,676.730164 
	C608.642761,677.073608 610.308411,678.938171 610.145752,679.850220 
	C609.912720,681.157043 608.418823,682.557922 607.111938,683.300110 
	C600.748901,686.913696 590.229736,685.380554 585.281616,680.313049 
	C580.277527,675.188232 579.372681,666.674805 583.169434,660.440063 
	C587.135864,653.926758 594.603333,651.572632 603.740601,654.189575 
M593.613770,659.769470 
	C591.916138,661.444336 590.218506,663.119141 588.520874,664.794006 
	C588.818237,665.208679 589.115662,665.623352 589.413025,666.038025 
	C594.658691,666.038025 599.904358,666.038025 605.287476,666.038025 
	C603.749756,660.021423 600.985596,658.479614 593.613770,659.769470 
z"/>
<path fill="#EFEAE4" opacity="1.000000" stroke="none" 
	d="
M431.612885,679.698853 
	C431.692139,682.828857 431.594238,685.026245 427.780060,684.965332 
	C423.834656,684.902283 424.173676,682.420349 424.170471,679.908936 
	C424.160919,672.426575 424.107513,664.943420 424.195953,657.462097 
	C424.246277,653.201538 426.884888,651.860596 430.833588,653.551697 
	C432.320862,654.188599 434.393433,654.462097 435.873322,653.953430 
	C447.048309,650.111755 455.160675,655.706787 455.271118,667.573792 
	C455.323242,673.176514 455.280090,678.780151 455.280090,684.246704 
	C448.067841,685.428650 447.913208,685.300598 447.856537,679.154724 
	C447.818176,675.000061 447.916901,670.834534 447.643707,666.694336 
	C447.370087,662.547852 445.292206,659.826904 440.765198,659.697266 
	C436.374969,659.571533 433.088989,661.442078 432.387543,665.842102 
	C431.686676,670.238708 431.837708,674.771057 431.612885,679.698853 
z"/>
<path fill="#EFEAE4" opacity="1.000000" stroke="none" 
	d="
M345.968933,653.645874 
	C348.363922,657.399048 347.702606,659.684387 343.202820,659.489746 
	C339.554504,659.331848 338.677490,661.019104 338.778809,664.299255 
	C338.953400,669.952881 338.758698,675.616821 338.835449,681.274841 
	C338.868866,683.736084 338.053040,684.930359 335.396545,684.928650 
	C332.855042,684.926941 331.223999,684.439148 331.269043,681.422546 
	C331.353577,675.764954 331.256256,670.104858 331.266602,664.445801 
	C331.271027,662.028992 331.304962,659.804626 328.020142,659.259949 
	C327.272491,659.135986 326.310577,657.285706 326.353821,656.268494 
	C326.396088,655.274353 327.558044,654.298767 328.297729,653.370117 
	C329.398376,651.988342 331.165009,650.821472 331.591003,649.272461 
	C333.447449,642.522034 339.354950,638.923523 346.129486,641.048157 
	C347.199982,641.383850 348.806183,643.437622 348.594788,643.812927 
	C347.863708,645.111023 346.495361,646.849854 345.268646,646.932983 
	C339.498260,647.324341 339.032410,647.565125 339.337921,652.937805 
	C341.398315,653.114990 343.515045,653.297058 345.968933,653.645874 
z"/>
<path fill="#EFEAE4" opacity="1.000000" stroke="none" 
	d="
M495.277893,664.082031 
	C495.265808,666.895203 495.244263,669.222717 495.267029,671.549866 
	C495.331024,678.086548 495.420013,678.050415 502.085419,678.828430 
	C503.146088,678.952209 504.664734,680.457764 504.817902,681.494995 
	C504.959015,682.450684 503.777710,684.250916 502.783783,684.622620 
	C494.765594,687.621216 487.953003,682.839111 487.741730,674.224487 
	C487.672455,671.399963 487.707703,668.572449 487.721527,665.746399 
	C487.736176,662.752686 488.194031,659.632690 483.778809,659.017822 
	C483.386536,658.963257 483.457672,655.580688 483.313568,653.743713 
	C488.269897,653.879761 487.439850,649.656677 488.384735,646.678833 
	C491.785034,646.248718 495.264496,644.993835 495.499451,650.566223 
	C495.539215,651.509460 497.492493,652.849670 498.766357,653.156372 
	C500.927094,653.676575 503.672729,652.801575 503.616547,656.505798 
	C503.566071,659.833923 501.173004,659.571960 499.035553,659.549927 
	C496.205841,659.520691 495.184692,660.995361 495.277893,664.082031 
z"/>
<path fill="#EFEAE4" opacity="1.000000" stroke="none" 
	d="
M396.972046,670.979614 
	C396.974915,666.171692 396.913513,661.857666 396.997437,657.546509 
	C397.076416,653.487976 399.406647,651.375061 402.460144,653.421570 
	C405.733917,655.615723 408.008423,654.459167 410.837494,653.493652 
	C412.020050,653.090149 413.401428,653.269104 415.125000,653.154480 
	C415.125000,655.384827 415.125000,657.278320 415.125000,659.164795 
	C405.650330,662.190430 405.004852,663.087158 404.989502,673.214966 
	C404.986481,675.205505 405.048431,677.198303 404.971893,679.185974 
	C404.868774,681.863525 405.772583,684.924500 401.092102,684.989929 
	C396.570038,685.053223 396.960571,682.304077 396.970245,679.436768 
	C396.979218,676.782776 396.971558,674.128723 396.972046,670.979614 
z"/>
<path fill="#EFEAE4" opacity="1.000000" stroke="none" 
	d="
M556.735474,668.005859 
	C556.737244,664.185181 556.678467,660.860474 556.754578,657.538879 
	C556.851990,653.290405 559.242676,652.014771 563.317383,653.497498 
	C565.033325,654.122009 567.088806,653.885132 568.991394,653.905396 
	C570.894836,653.925659 573.427917,653.017944 574.524170,653.923035 
	C575.573914,654.789734 575.132019,657.463196 575.336182,659.258484 
	C565.805786,661.487183 564.453003,663.248840 564.402405,672.825500 
	C564.388367,675.484131 564.302246,678.146606 564.413269,680.800476 
	C564.534424,683.699280 563.501404,684.992798 560.383850,684.959290 
	C557.411316,684.927307 556.679138,683.542725 556.723633,680.965271 
	C556.795349,676.812378 556.737793,672.657288 556.735474,668.005859 
z"/>
<path fill="#EFEAE4" opacity="1.000000" stroke="none" 
	d="
M467.077087,665.027100 
	C467.079620,662.213196 467.121826,659.892517 467.073914,657.573608 
	C467.021454,655.036316 467.243256,653.088379 470.686829,653.038513 
	C473.994629,652.990540 474.529816,654.599365 474.503662,657.313599 
	C474.428589,665.101196 474.429657,672.890503 474.503204,680.678162 
	C474.528748,683.383850 474.011566,685.009277 470.695068,684.961792 
	C467.258179,684.912598 467.047516,682.978699 467.070679,680.434753 
	C467.115906,675.463867 467.079590,670.492310 467.077087,665.027100 
z"/>
<path fill="#EFEAE4" opacity="1.000000" stroke="none" 
	d="
M475.075989,641.796021 
	C474.286804,644.001343 473.799835,646.702454 472.299347,647.502319 
	C471.119781,648.131104 468.234467,646.853699 466.987030,645.568604 
	C466.257233,644.816772 466.642761,641.729309 467.595795,640.845581 
	C469.915161,638.694885 472.701019,638.767578 475.075989,641.796021 
z"/>
<path fill="#B68D69" opacity="1.000000" stroke="none" 
	d="
M539.000000,403.941345 
	C474.371002,403.941284 410.242035,403.942657 346.113037,403.939209 
	C339.009827,403.938812 338.998169,403.926147 338.995148,396.868408 
	C338.989044,382.543488 338.934540,368.218201 339.017029,353.893738 
	C339.094299,340.475830 345.598022,334.006073 359.109467,333.999878 
	C432.899445,333.965912 506.689453,333.966003 580.479431,333.999603 
	C594.150574,334.005829 600.764343,340.564453 600.860718,354.188904 
	C600.965515,369.012817 600.761475,383.839783 600.970886,398.661469 
	C601.030579,402.887573 599.506287,404.046509 595.466064,404.011078 
	C576.811890,403.847717 558.155579,403.940460 539.000000,403.941345 
z"/>
<path fill="#B68D69" opacity="1.000000" stroke="none" 
	d="
M453.000000,316.154236 
	C428.356049,316.153503 404.211090,316.035461 380.069061,316.250122 
	C375.212585,316.293304 373.794586,314.743805 373.893707,309.977875 
	C374.174072,296.496399 374.122864,283.003265 373.913452,269.519226 
	C373.849091,265.376282 374.741333,263.681274 379.381317,263.692810 
	C439.657532,263.842773 499.934326,263.833405 560.210632,263.708771 
	C564.615967,263.699677 565.951538,265.077606 565.887878,269.418060 
	C565.687744,283.068298 565.679077,296.728363 565.995911,310.375366 
	C566.107056,315.159058 564.293884,316.242401 559.899597,316.226074 
	C524.433533,316.094269 488.966644,316.153320 453.000000,316.154236 
z"/>
<path fill="#B78D6A" opacity="1.000000" stroke="none" 
	d="
M674.070068,588.872925 
	C670.959778,588.872864 668.338501,588.872864 665.409302,588.872864 
	C665.237183,586.893860 665.004517,585.453735 665.002869,584.013306 
	C664.980103,564.045593 665.083435,544.077087 664.909180,524.110962 
	C664.875061,520.194641 666.016724,518.816101 669.974121,519.015137 
	C679.267029,519.482666 688.655457,518.947937 697.862732,520.030518 
	C715.972107,522.159912 727.501709,536.105591 727.244629,554.418701 
	C726.984741,572.932556 715.251465,586.151428 696.967529,587.982605 
	C689.542786,588.726379 682.031189,588.602173 674.070068,588.872925 
z"/>
<path fill="#B78D6A" opacity="1.000000" stroke="none" 
	d="
M437.791870,583.329773 
	C420.747131,571.295837 417.498199,546.830505 430.560089,530.996155 
	C443.246338,515.617188 469.021210,514.398376 483.885529,528.474609 
	C497.833344,541.682861 497.510468,566.793274 483.220367,580.205750 
	C471.834351,590.892517 452.844696,592.290344 437.791870,583.329773 
z"/>
<path fill="#B78D6A" opacity="1.000000" stroke="none" 
	d="
M556.242676,583.936707 
	C539.008667,572.516052 534.821472,548.259583 547.046936,532.293396 
	C559.372498,516.196472 584.334778,513.900635 600.153931,527.408997 
	C614.836731,539.947021 615.663818,564.767700 601.873718,579.021851 
	C590.808167,590.459778 572.170349,592.560730 556.242676,583.936707 
z"/>
<path fill="#B78E6B" opacity="1.000000" stroke="none" 
	d="
M795.012756,566.392090 
	C790.248779,566.392334 785.981628,566.392334 780.618103,566.392334 
	C787.256592,551.248535 793.423584,537.180359 799.590576,523.112183 
	C800.115967,523.052551 800.641357,522.992920 801.166748,522.933289 
	C807.346863,537.023438 813.527039,551.113525 820.228333,566.391785 
	C811.058716,566.391785 803.284119,566.391785 795.012756,566.392090 
z"/>
<path fill="#B78E6B" opacity="1.000000" stroke="none" 
	d="
M248.368134,538.665161 
	C252.342560,547.785095 256.169128,556.556091 260.286743,565.994141 
	C246.985229,565.994141 234.635910,565.994141 221.088058,565.994141 
	C227.573395,551.187622 233.750351,537.085205 239.927292,522.982727 
	C240.431320,523.003479 240.935349,523.024231 241.439392,523.044983 
	C243.699692,528.135376 245.959991,533.225708 248.368134,538.665161 
z"/>
<path fill="#B78E6B" opacity="1.000000" stroke="none" 
	d="
M593.979736,659.621582 
	C600.985596,658.479614 603.749756,660.021423 605.287476,666.038025 
	C599.904358,666.038025 594.658691,666.038025 589.413025,666.038025 
	C589.115662,665.623352 588.818237,665.208679 588.520874,664.794006 
	C590.218506,663.119141 591.916138,661.444336 593.979736,659.621582 
z"/>
</svg>